<svg width="173" height="41" viewBox="0 0 173 41" fill="none" xmlns="http://www.w3.org/2000/svg">
<path d="M64.0936 24.2402C64.0936 23.9154 64.0437 23.6239 63.9437 23.3657C63.8521 23.0992 63.6772 22.8577 63.419 22.6411C63.1608 22.4163 62.7985 22.1956 62.3321 21.979C61.8657 21.7625 61.2619 21.5376 60.5207 21.3044C59.6962 21.0379 58.9133 20.7381 58.172 20.4049C57.4391 20.0718 56.7895 19.6845 56.2232 19.2431C55.6651 18.7934 55.2237 18.2728 54.8989 17.6815C54.5824 17.0902 54.4242 16.4031 54.4242 15.6202C54.4242 14.8623 54.5908 14.1752 54.9239 13.5589C55.257 12.9342 55.7234 12.4012 56.3231 11.9598C56.9228 11.51 57.6307 11.1644 58.4469 10.9229C59.2714 10.6813 60.1751 10.5606 61.1578 10.5606C62.4987 10.5606 63.6689 10.8021 64.6683 11.2852C65.6677 11.7682 66.4423 12.4303 66.992 13.2715C67.55 14.1127 67.829 15.0747 67.829 16.1574H64.1061C64.1061 15.6243 63.9937 15.1579 63.7688 14.7582C63.5523 14.3501 63.2191 14.0294 62.7694 13.7962C62.328 13.563 61.77 13.4464 61.0954 13.4464C60.4457 13.4464 59.9044 13.5464 59.4713 13.7462C59.0382 13.9378 58.7134 14.2002 58.4968 14.5333C58.2803 14.8581 58.172 15.2246 58.172 15.6327C58.172 15.9408 58.247 16.2198 58.3969 16.4697C58.5551 16.7195 58.7883 16.9527 59.0965 17.1693C59.4047 17.3858 59.7836 17.5899 60.2334 17.7814C60.6831 17.973 61.2036 18.1604 61.795 18.3436C62.7861 18.6434 63.6564 18.9807 64.406 19.3555C65.1639 19.7303 65.7968 20.1509 66.3049 20.6173C66.8129 21.0837 67.196 21.6126 67.4542 22.2039C67.7124 22.7952 67.8415 23.4657 67.8415 24.2152C67.8415 25.0065 67.6874 25.7144 67.3793 26.339C67.0711 26.9637 66.6255 27.4925 66.0425 27.9256C65.4595 28.3587 64.7641 28.6877 63.9562 28.9126C63.1483 29.1374 62.2447 29.2499 61.2453 29.2499C60.3458 29.2499 59.4588 29.1333 58.5843 28.9001C57.7098 28.6585 56.9144 28.2962 56.1982 27.8132C55.4902 27.3301 54.9239 26.7138 54.4991 25.9642C54.0744 25.2147 53.862 24.3277 53.862 23.3033H57.6223C57.6223 23.8696 57.7098 24.3485 57.8847 24.7399C58.0596 25.1314 58.3053 25.4479 58.6218 25.6894C58.9466 25.9309 59.3297 26.1058 59.7711 26.2141C60.2209 26.3224 60.7122 26.3765 61.2453 26.3765C61.8949 26.3765 62.4279 26.2849 62.8444 26.1017C63.2691 25.9184 63.5814 25.6644 63.7813 25.3396C63.9895 25.0148 64.0936 24.6483 64.0936 24.2402ZM73.6756 9.81101V29H70.0777V9.81101H73.6756ZM73.1634 21.7666H72.1765C72.1848 20.8255 72.3098 19.9594 72.5513 19.1681C72.7928 18.3686 73.1384 17.6773 73.5882 17.0943C74.0379 16.503 74.5751 16.0449 75.1998 15.7201C75.8327 15.3953 76.5323 15.2329 77.2986 15.2329C77.9648 15.2329 78.5687 15.3287 79.11 15.5202C79.6597 15.7035 80.1303 16.0033 80.5217 16.4197C80.9215 16.8278 81.2296 17.365 81.4462 18.0313C81.6627 18.6976 81.771 19.5054 81.771 20.4549V29H78.1481V20.4299C78.1481 19.8303 78.0606 19.3597 77.8857 19.0182C77.7192 18.6684 77.4735 18.4227 77.1486 18.2811C76.8322 18.1312 76.4407 18.0563 75.9743 18.0563C75.458 18.0563 75.0165 18.1521 74.6501 18.3436C74.292 18.5352 74.0046 18.8017 73.7881 19.1432C73.5715 19.4763 73.4133 19.8677 73.3133 20.3175C73.2134 20.7672 73.1634 21.2503 73.1634 21.7666ZM83.9323 22.3788V22.1164C83.9323 21.1253 84.0738 20.2134 84.357 19.3805C84.6402 18.5393 85.0524 17.8106 85.5938 17.1943C86.1352 16.578 86.8014 16.0991 87.5927 15.7576C88.3839 15.4078 89.2917 15.2329 90.3161 15.2329C91.3405 15.2329 92.2525 15.4078 93.052 15.7576C93.8516 16.0991 94.522 16.578 95.0634 17.1943C95.6131 17.8106 96.0295 18.5393 96.3127 19.3805C96.5958 20.2134 96.7374 21.1253 96.7374 22.1164V22.3788C96.7374 23.3616 96.5958 24.2735 96.3127 25.1147C96.0295 25.9476 95.6131 26.6763 95.0634 27.301C94.522 27.9173 93.8557 28.3962 93.0645 28.7377C92.2733 29.0791 91.3655 29.2499 90.3411 29.2499C89.3167 29.2499 88.4047 29.0791 87.6052 28.7377C86.8139 28.3962 86.1435 27.9173 85.5938 27.301C85.0524 26.6763 84.6402 25.9476 84.357 25.1147C84.0738 24.2735 83.9323 23.3616 83.9323 22.3788ZM87.5302 22.1164V22.3788C87.5302 22.9451 87.5802 23.474 87.6801 23.9654C87.7801 24.4568 87.9383 24.8899 88.1548 25.2646C88.3797 25.6311 88.6712 25.9184 89.0293 26.1266C89.3875 26.3349 89.8247 26.439 90.3411 26.439C90.8408 26.439 91.2697 26.3349 91.6278 26.1266C91.986 25.9184 92.2733 25.6311 92.4898 25.2646C92.7064 24.8899 92.8646 24.4568 92.9646 23.9654C93.0728 23.474 93.127 22.9451 93.127 22.3788V22.1164C93.127 21.5668 93.0728 21.0504 92.9646 20.5673C92.8646 20.076 92.7022 19.6429 92.4774 19.2681C92.2608 18.885 91.9735 18.5851 91.6154 18.3686C91.2572 18.1521 90.8241 18.0438 90.3161 18.0438C89.8081 18.0438 89.375 18.1521 89.0168 18.3686C88.667 18.5851 88.3797 18.885 88.1548 19.2681C87.9383 19.6429 87.7801 20.076 87.6801 20.5673C87.5802 21.0504 87.5302 21.5668 87.5302 22.1164ZM102.809 25.502L105.62 15.4828H107.906L107.169 19.418L104.358 29H102.447L102.809 25.502ZM101.385 15.4828L103.396 25.4895L103.583 29H101.335L97.9117 15.4828H101.385ZM110.48 25.3271L112.441 15.4828H115.926L112.503 29H110.267L110.48 25.3271ZM108.218 15.4828L111.017 25.427L111.404 29H109.48L106.669 19.4305L105.957 15.4828H108.218ZM125.046 25.2646C125.046 25.0065 124.971 24.7733 124.821 24.565C124.671 24.3568 124.392 24.1653 123.984 23.9904C123.585 23.8071 123.006 23.6406 122.248 23.4907C121.565 23.3407 120.928 23.1534 120.336 22.9285C119.753 22.6953 119.245 22.4163 118.812 22.0915C118.387 21.7666 118.054 21.3835 117.813 20.9421C117.571 20.4924 117.451 19.9802 117.451 19.4055C117.451 18.8392 117.571 18.3061 117.813 17.8064C118.063 17.3067 118.417 16.8653 118.875 16.4822C119.341 16.0907 119.907 15.7867 120.574 15.5702C121.248 15.3453 122.006 15.2329 122.847 15.2329C124.022 15.2329 125.03 15.4203 125.871 15.7951C126.72 16.1699 127.37 16.6862 127.82 17.3442C128.278 17.9938 128.507 18.7351 128.507 19.5679H124.909C124.909 19.2181 124.834 18.9058 124.684 18.6309C124.542 18.3478 124.317 18.1271 124.009 17.9688C123.709 17.8023 123.318 17.719 122.835 17.719C122.435 17.719 122.09 17.7898 121.798 17.9313C121.507 18.0646 121.282 18.2478 121.123 18.481C120.974 18.7059 120.899 18.9558 120.899 19.2306C120.899 19.4388 120.94 19.6262 121.023 19.7928C121.115 19.951 121.261 20.0968 121.461 20.23C121.661 20.3633 121.919 20.4882 122.235 20.6048C122.56 20.7131 122.96 20.813 123.435 20.9046C124.409 21.1045 125.279 21.3669 126.046 21.6917C126.812 22.0082 127.42 22.4413 127.87 22.9909C128.319 23.5323 128.544 24.2444 128.544 25.1272C128.544 25.7269 128.411 26.2766 128.144 26.7763C127.878 27.276 127.495 27.7132 126.995 28.088C126.495 28.4545 125.896 28.7418 125.196 28.95C124.505 29.1499 123.726 29.2499 122.86 29.2499C121.602 29.2499 120.536 29.025 119.662 28.5752C118.796 28.1255 118.138 27.555 117.688 26.8637C117.246 26.1641 117.026 25.4479 117.026 24.715H120.436C120.453 25.2063 120.578 25.6019 120.811 25.9018C121.053 26.2016 121.357 26.4181 121.723 26.5514C122.098 26.6847 122.502 26.7513 122.935 26.7513C123.401 26.7513 123.789 26.6888 124.097 26.5639C124.405 26.4306 124.638 26.2557 124.796 26.0392C124.963 25.8143 125.046 25.5561 125.046 25.2646ZM131.055 27.2635C131.055 26.7305 131.238 26.2849 131.605 25.9268C131.98 25.5686 132.475 25.3896 133.092 25.3896C133.708 25.3896 134.199 25.5686 134.566 25.9268C134.941 26.2849 135.128 26.7305 135.128 27.2635C135.128 27.7965 134.941 28.2421 134.566 28.6002C134.199 28.9584 133.708 29.1374 133.092 29.1374C132.475 29.1374 131.98 28.9584 131.605 28.6002C131.238 28.2421 131.055 27.7965 131.055 27.2635ZM138.301 9.81101H141.899V25.9018L141.537 29H138.301V9.81101ZM150.457 22.104V22.3663C150.457 23.3741 150.348 24.2985 150.132 25.1397C149.924 25.9809 149.599 26.7096 149.157 27.326C148.716 27.9339 148.166 28.4087 147.508 28.7501C146.859 29.0833 146.092 29.2499 145.21 29.2499C144.385 29.2499 143.669 29.0833 143.061 28.7501C142.461 28.417 141.957 27.9464 141.549 27.3385C141.141 26.7305 140.812 26.0184 140.562 25.2022C140.312 24.386 140.125 23.4948 140 22.5287V21.954C140.125 20.9879 140.312 20.0968 140.562 19.2806C140.812 18.4644 141.141 17.7523 141.549 17.1443C141.957 16.5363 142.461 16.0658 143.061 15.7326C143.661 15.3995 144.368 15.2329 145.185 15.2329C146.076 15.2329 146.85 15.4036 147.508 15.7451C148.175 16.0782 148.724 16.553 149.157 17.1693C149.599 17.7773 149.924 18.5019 150.132 19.343C150.348 20.1759 150.457 21.0962 150.457 22.104ZM146.859 22.3663V22.104C146.859 21.5543 146.817 21.0379 146.734 20.5548C146.659 20.0635 146.526 19.6345 146.334 19.2681C146.142 18.8933 145.88 18.5976 145.547 18.3811C145.222 18.1645 144.802 18.0563 144.285 18.0563C143.794 18.0563 143.377 18.1396 143.036 18.3061C142.694 18.4727 142.411 18.7059 142.186 19.0057C141.97 19.3056 141.807 19.6637 141.699 20.0801C141.591 20.4882 141.524 20.938 141.499 21.4293V23.0659C141.524 23.7239 141.632 24.3069 141.824 24.8149C142.024 25.3146 142.324 25.7102 142.724 26.0017C143.132 26.2849 143.661 26.4265 144.31 26.4265C144.818 26.4265 145.239 26.3265 145.572 26.1266C145.905 25.9268 146.163 25.6436 146.346 25.2771C146.538 24.9107 146.671 24.4818 146.746 23.9904C146.821 23.4907 146.859 22.9493 146.859 22.3663ZM156.491 15.4828V29H152.88V15.4828H156.491ZM152.655 11.9598C152.655 11.4351 152.839 11.002 153.205 10.6605C153.571 10.319 154.063 10.1483 154.679 10.1483C155.287 10.1483 155.774 10.319 156.141 10.6605C156.516 11.002 156.703 11.4351 156.703 11.9598C156.703 12.4845 156.516 12.9176 156.141 13.259C155.774 13.6005 155.287 13.7712 154.679 13.7712C154.063 13.7712 153.571 13.6005 153.205 13.259C152.839 12.9176 152.655 12.4845 152.655 11.9598ZM158.889 22.3788V22.1164C158.889 21.1253 159.031 20.2134 159.314 19.3805C159.597 18.5393 160.009 17.8106 160.551 17.1943C161.092 16.578 161.758 16.0991 162.55 15.7576C163.341 15.4078 164.249 15.2329 165.273 15.2329C166.298 15.2329 167.209 15.4078 168.009 15.7576C168.809 16.0991 169.479 16.578 170.02 17.1943C170.57 17.8106 170.986 18.5393 171.27 19.3805C171.553 20.2134 171.694 21.1253 171.694 22.1164V22.3788C171.694 23.3616 171.553 24.2735 171.27 25.1147C170.986 25.9476 170.57 26.6763 170.02 27.301C169.479 27.9173 168.813 28.3962 168.022 28.7377C167.23 29.0791 166.322 29.2499 165.298 29.2499C164.274 29.2499 163.362 29.0791 162.562 28.7377C161.771 28.3962 161.1 27.9173 160.551 27.301C160.009 26.6763 159.597 25.9476 159.314 25.1147C159.031 24.2735 158.889 23.3616 158.889 22.3788ZM162.487 22.1164V22.3788C162.487 22.9451 162.537 23.474 162.637 23.9654C162.737 24.4568 162.895 24.8899 163.112 25.2646C163.337 25.6311 163.628 25.9184 163.986 26.1266C164.344 26.3349 164.782 26.439 165.298 26.439C165.798 26.439 166.227 26.3349 166.585 26.1266C166.943 25.9184 167.23 25.6311 167.447 25.2646C167.663 24.8899 167.822 24.4568 167.922 23.9654C168.03 23.474 168.084 22.9451 168.084 22.3788V22.1164C168.084 21.5668 168.03 21.0504 167.922 20.5673C167.822 20.076 167.659 19.6429 167.434 19.2681C167.218 18.885 166.93 18.5851 166.572 18.3686C166.214 18.1521 165.781 18.0438 165.273 18.0438C164.765 18.0438 164.332 18.1521 163.974 18.3686C163.624 18.5851 163.337 18.885 163.112 19.2681C162.895 19.6429 162.737 20.076 162.637 20.5673C162.537 21.0504 162.487 21.5668 162.487 22.1164Z" fill="#E1E1E6"/>
<path d="M38 1H0V39H38V1Z" fill="white" fill-opacity="0.01"/>
<path d="M3.95833 16.0417H34.0417V32.6667C34.0417 33.5412 33.3328 34.2501 32.4583 34.2501H5.54167C4.66721 34.2501 3.95833 33.5412 3.95833 32.6667V16.0417Z" fill="#00B37E" stroke="#00B37E" stroke-width="4" stroke-linejoin="round"/>
<path d="M3.95833 8.12508C3.95833 7.25063 4.66721 6.54175 5.54167 6.54175H32.4583C33.3328 6.54175 34.0417 7.25063 34.0417 8.12508V16.0417H3.95833V8.12508Z" stroke="#00B37E" stroke-width="4" stroke-linejoin="round"/>
<path d="M12.6667 4.16675V10.5001" stroke="#00B37E" stroke-width="4" stroke-linecap="round" stroke-linejoin="round"/>
<path d="M25.3333 4.16675V10.5001" stroke="#00B37E" stroke-width="4" stroke-linecap="round" stroke-linejoin="round"/>
<circle cx="10.1333" cy="21.2667" r="2.53333" fill="black"/>
<circle cx="19" cy="21.2667" r="2.53333" fill="black"/>
<circle cx="27.8667" cy="21.2667" r="2.53333" fill="black"/>
<circle cx="10.1333" cy="28.8666" r="2.53333" fill="black"/>
<circle cx="19" cy="28.8666" r="2.53333" fill="black"/>
<circle cx="27.8667" cy="28.8666" r="2.53333" fill="black"/>
</svg>
